<svg xmlns="http://www.w3.org/2000/svg" width="100" height="100" viewBox="0 0 100 100" fill="none">
  <path d="M17.315 12.1651C26.3876 4.30296 37.9949 -0.0171473 50 5.11533e-05C77.615 5.11533e-05 100 22.3851 100 50C100 60.68 96.65 70.58 90.95 78.7L75 50H90C90.0006 42.1582 87.6962 34.4891 83.3733 27.9463C79.0504 21.4036 72.8997 16.2758 65.6859 13.2007C58.4721 10.1255 50.5136 9.23856 42.7998 10.6501C35.086 12.0617 27.9573 15.7095 22.3 21.14L17.315 12.1651ZM82.685 87.835C73.6124 95.6971 62.0051 100.017 50 100C22.385 100 0 77.615 0 50C0 39.32 3.35 29.42 9.05 21.3L25 50H10C9.99936 57.8419 12.3038 65.511 16.6267 72.0538C20.9496 78.5965 27.1003 83.7243 34.3141 86.7994C41.5279 89.8746 49.4864 90.7615 57.2002 89.3499C64.914 87.9384 72.0427 84.2905 77.7 78.86L82.685 87.835Z" fill="currentColor"/>
</svg>